<mxfile host="app.diagrams.net" modified="2023-11-08T10:57:36.972Z" agent="Mozilla/5.0 (Windows NT 10.0; Win64; x64) AppleWebKit/537.36 (KHTML, like Gecko) Chrome/119.0.0.0 Safari/537.36" etag="m0MnjtF-3mJRhDc3ax5c" version="22.0.8" type="device">
  <diagram name="Page-1" id="j2lwV7O4UW7M78foO9gk">
    <mxGraphModel dx="1050" dy="566" grid="1" gridSize="10" guides="1" tooltips="1" connect="1" arrows="1" fold="1" page="1" pageScale="1" pageWidth="850" pageHeight="1100" math="0" shadow="0">
      <root>
        <mxCell id="0" />
        <mxCell id="1" parent="0" />
        <mxCell id="nwDSv7eBgZ53YbcwBd28-2" value="Context" style="swimlane;startSize=80;fontSize=24;fontStyle=2" vertex="1" parent="1">
          <mxGeometry x="90" y="90" width="200" height="200" as="geometry" />
        </mxCell>
        <mxCell id="nwDSv7eBgZ53YbcwBd28-3" value="&lt;font color=&quot;#000066&quot; style=&quot;font-size: 16px;&quot;&gt;setStrategy()&lt;/font&gt;" style="text;html=1;align=center;verticalAlign=middle;resizable=0;points=[];autosize=1;strokeColor=none;fillColor=none;" vertex="1" parent="nwDSv7eBgZ53YbcwBd28-2">
          <mxGeometry x="40" y="110" width="120" height="30" as="geometry" />
        </mxCell>
        <mxCell id="nwDSv7eBgZ53YbcwBd28-4" value="&lt;font style=&quot;font-size: 16px;&quot;&gt;Void()&lt;/font&gt;" style="text;html=1;align=center;verticalAlign=middle;resizable=0;points=[];autosize=1;strokeColor=none;fillColor=none;" vertex="1" parent="nwDSv7eBgZ53YbcwBd28-2">
          <mxGeometry x="65" y="148" width="70" height="30" as="geometry" />
        </mxCell>
        <mxCell id="nwDSv7eBgZ53YbcwBd28-14" style="edgeStyle=orthogonalEdgeStyle;rounded=0;orthogonalLoop=1;jettySize=auto;html=1;entryX=1;entryY=0.25;entryDx=0;entryDy=0;" edge="1" parent="1" source="nwDSv7eBgZ53YbcwBd28-5" target="nwDSv7eBgZ53YbcwBd28-2">
          <mxGeometry relative="1" as="geometry" />
        </mxCell>
        <mxCell id="nwDSv7eBgZ53YbcwBd28-5" value="&lt;font style=&quot;font-size: 26px;&quot;&gt;&lt;i&gt;Strategy&lt;/i&gt;&lt;/font&gt;" style="rounded=0;whiteSpace=wrap;html=1;" vertex="1" parent="1">
          <mxGeometry x="480" y="200" width="210" height="120" as="geometry" />
        </mxCell>
        <mxCell id="nwDSv7eBgZ53YbcwBd28-8" value="&lt;font size=&quot;1&quot; style=&quot;&quot;&gt;&lt;i style=&quot;font-size: 22px;&quot;&gt;Concrete Strategy&lt;/i&gt;&lt;/font&gt;" style="rounded=0;whiteSpace=wrap;html=1;" vertex="1" parent="1">
          <mxGeometry x="280" y="430" width="200" height="90" as="geometry" />
        </mxCell>
        <mxCell id="nwDSv7eBgZ53YbcwBd28-9" style="edgeStyle=orthogonalEdgeStyle;rounded=0;orthogonalLoop=1;jettySize=auto;html=1;exitX=0.5;exitY=0;exitDx=0;exitDy=0;entryX=0.455;entryY=1.003;entryDx=0;entryDy=0;entryPerimeter=0;" edge="1" parent="1" source="nwDSv7eBgZ53YbcwBd28-8" target="nwDSv7eBgZ53YbcwBd28-5">
          <mxGeometry relative="1" as="geometry" />
        </mxCell>
        <mxCell id="nwDSv7eBgZ53YbcwBd28-10" value="&lt;i&gt;&lt;font style=&quot;font-size: 22px;&quot;&gt;Concrete Strategy&lt;/font&gt;&lt;/i&gt;" style="rounded=0;whiteSpace=wrap;html=1;" vertex="1" parent="1">
          <mxGeometry x="560" y="430" width="200" height="90" as="geometry" />
        </mxCell>
        <mxCell id="nwDSv7eBgZ53YbcwBd28-13" style="edgeStyle=orthogonalEdgeStyle;rounded=0;orthogonalLoop=1;jettySize=auto;html=1;entryX=0.859;entryY=0.997;entryDx=0;entryDy=0;entryPerimeter=0;" edge="1" parent="1" source="nwDSv7eBgZ53YbcwBd28-10" target="nwDSv7eBgZ53YbcwBd28-5">
          <mxGeometry relative="1" as="geometry" />
        </mxCell>
      </root>
    </mxGraphModel>
  </diagram>
</mxfile>
